<?xml version="1.0" encoding="utf-8"?><svg viewBox="0 0 409 409" xmlns="http://www.w3.org/2000/svg" xmlns:xlink="http://www.w3.org/1999/xlink"><style>:root>svg{display:none}:root>svg:target{display:block}</style><svg viewBox="0 0 329.269 329" id="icon-close" xmlns="http://www.w3.org/2000/svg"><path d="M194.8 164.77L323.013 36.555c8.343-8.34 8.343-21.825 0-30.164-8.34-8.34-21.825-8.34-30.164 0L164.633 134.605 36.422 6.391c-8.344-8.34-21.824-8.34-30.164 0-8.344 8.34-8.344 21.824 0 30.164l128.21 128.215L6.259 292.984c-8.344 8.34-8.344 21.825 0 30.164a21.266 21.266 0 0015.082 6.25c5.46 0 10.922-2.09 15.082-6.25l128.21-128.214 128.216 128.214a21.273 21.273 0 0015.082 6.25c5.46 0 10.922-2.09 15.082-6.25 8.343-8.34 8.343-21.824 0-30.164zm0 0" fill="currentColor"/></svg><svg viewBox="0 0 24 24" stroke="currentColor" aria-hidden="true" fill="none" id="icon-how-to" xmlns="http://www.w3.org/2000/svg"><path stroke-linecap="round" stroke-linejoin="round" stroke-width="2" d="M8.228 9c.549-1.165 2.03-2 3.772-2 2.21 0 4 1.343 4 3 0 1.4-1.278 2.575-3.006 2.907-.542.104-.994.54-.994 1.093m0 3h.01M21 12a9 9 0 11-18 0 9 9 0 0118 0z"/></svg><svg stroke="currentColor" fill="none" stroke-width="2" viewBox="0 0 24 24" stroke-linecap="round" stroke-linejoin="round" id="icon-settings" xmlns="http://www.w3.org/2000/svg"><path d="M0 0h24v24H0z" stroke="none"/><path d="M10.325 4.317c.426-1.756 2.924-1.756 3.35 0a1.724 1.724 0 002.573 1.066c1.543-.94 3.31.826 2.37 2.37a1.724 1.724 0 001.065 2.572c1.756.426 1.756 2.924 0 3.35a1.724 1.724 0 00-1.066 2.573c.94 1.543-.826 3.31-2.37 2.37a1.724 1.724 0 00-2.572 1.065c-.426 1.756-2.924 1.756-3.35 0a1.724 1.724 0 00-2.573-1.066c-1.543.94-3.31-.826-2.37-2.37a1.724 1.724 0 00-1.065-2.572c-1.756-.426-1.756-2.924 0-3.35a1.724 1.724 0 001.066-2.573c-.94-1.543.826-3.31 2.37-2.37 1 .608 2.296.07 2.572-1.065z"/><circle cx="12" cy="12" r="3"/></svg><svg viewBox="0 -51 409.6 409" id="icon-sort" xmlns="http://www.w3.org/2000/svg"><path d="M24.137 222.184L0 246.316l56.203 56.188c6.664 6.664 17.484 6.664 24.137 0l56.195-56.188-24.137-24.152-27.062 27.07V.301H51.199v248.933zm0 0M170.664 34.434h238.938V68.57H170.664zm0 0M170.664 102.7h187.734v34.136H170.664zm0 0M170.664 170.965H307.2v34.137H170.664zm0 0M170.664 239.234H256v34.13h-85.336zm0 0"/></svg><svg viewBox="0 -51 409.6 409" id="icon-sort-white" xmlns="http://www.w3.org/2000/svg"><path d="M24.137 222.184L0 246.316l56.203 56.188c6.664 6.664 17.484 6.664 24.137 0l56.195-56.188-24.137-24.152-27.062 27.07V.301H51.199v248.933zm0 0M170.664 34.434h238.938V68.57H170.664zm0 0M170.664 102.7h187.734v34.136H170.664zm0 0M170.664 170.965H307.2v34.137H170.664zm0 0M170.664 239.234H256v34.13h-85.336zm0 0" fill="#fff"/></svg><svg stroke-width="2" stroke="currentColor" aria-hidden="true" fill="none" viewBox="0 0 24 24" id="icon-stats" xmlns="http://www.w3.org/2000/svg"><path stroke-linecap="round" stroke-linejoin="round" d="M9 19v-6a2 2 0 00-2-2H5a2 2 0 00-2 2v6a2 2 0 002 2h2a2 2 0 002-2zm0 0V9a2 2 0 012-2h2a2 2 0 012 2v10m-6 0a2 2 0 002 2h2a2 2 0 002-2m0 0V5a2 2 0 012-2h2a2 2 0 012 2v14a2 2 0 01-2 2h-2a2 2 0 01-2-2z"/></svg></svg>